<svg xmlns="http://www.w3.org/2000/svg" width="234" height="58" fill="none" viewBox="0 0 234 58"><path fill="#fff" fill-rule="evenodd" d="M226.633 1.232c-.749.731-1.26 4.254-1.26 8.674v7.444l-5.105-2.59c-5.742-2.913-10.01-2.71-15.826.748-4.011 2.385-7.356 9.09-7.388 14.809-.028 5.006 3.645 12.431 7.51 15.183 1.544 1.1 5.087 2.209 7.872 2.463 4.186.384 5.748.008 9.001-2.165 2.165-1.446 3.936-2.213 3.936-1.706 0 1.173 3.01 4.147 4.199 4.147.494 0 1.641-.725 2.549-1.612 1.393-1.363 1.649-4.916 1.649-22.888C233.77 1.937 233.428 0 229.572 0c-.924 0-2.247.554-2.939 1.232M168.358 13.77c-4.656 1.662-7.744 4.166-9.599 7.782-6.5 12.673 2.059 26.687 16.299 26.687 8.263 0 16.207-5.844 12.017-8.84-1.514-1.082-2.474-.965-5.629.689-5.601 2.935-10.197 2.602-13.887-1.007-5.628-5.502-4.583-6.237 8.875-6.237 13.54 0 14.988-.672 13.754-6.373-2.264-10.46-12.091-16.179-21.83-12.701m11.615 8.438c4.333 4.658 3.324 5.504-6.56 5.504-4.907 0-8.923-.21-8.923-.465 0-2.198 3.17-6.24 5.749-7.331 3.916-1.658 6.663-1.012 9.734 2.291m42.332.293c6.688 6.54 2.165 18.964-6.904 18.964-3.112 0-4.575-.694-6.957-3.3-6.518-7.134-2.221-18.664 6.957-18.664 2.839 0 4.632.779 6.904 3" clip-rule="evenodd"/><path fill="#fff" d="M51.125 23.643c0-12.256.337-22.612.748-23.014.41-.402 1.946-.595 3.412-.428l2.663.304v22.981c0 20.33-.202 23.106-1.75 24.06-1.268.784-2.205.709-3.41-.27-1.424-1.155-1.663-4.553-1.663-23.633M11.582 44.972c-14.042-3.79-15.8-25.83-2.605-32.645 7.156-3.697 15.434-2.014 20.358 4.138l2.704 3.378 1.319-4.304c.955-3.119 2.006-4.472 3.818-4.916 1.374-.338 2.775-.346 3.11-.018.335.329-.953 4.39-2.864 9.025l-3.474 8.427 2.074 5.725c1.62 4.478 2.801 6.06 5.416 7.264 4.608 2.123 4.219 3.726-1.073 4.42-5.77.758-8.305-1.455-10.729-9.362-5.893-19.221-7.344-21.743-12.517-21.743-8.761 0-13.43 15.305-7.17 23.503 2.778 3.638 4.792 4.602 7.982 3.819 2.717-.667 4.123-1.865 7.371-6.28 1.462-1.989 1.532-1.96 2.278.946.638 2.485.294 3.396-2.015 5.339-3.925 3.3-9.272 4.556-13.983 3.284"/><path fill="#fff" fill-rule="evenodd" d="M78.748 13.393c-4.638 1.376-9.564 6.506-10.392 10.823-1.76 9.17 1.866 16.587 9.505 19.44 5.741 2.144 10.808 1.401 15.221-2.229l3.18-2.616v2.609c0 3.724-1.966 7.441-4.577 8.657-4.631 2.158-6.295 2.224-13.447.536-6.325-1.492-7.464-1.528-8.284-.26-1.457 2.254-.708 3.346 3.796 5.538 5.805 2.823 17.535 2.81 22.503-.027 6.44-3.677 7.605-7.021 8.176-23.456.349-10.042.124-15.297-.718-16.836-1.609-2.938-6.376-3.063-7.145-.185-.678 2.534-.773 2.534-4.318-.029-3.475-2.511-8.964-3.31-13.5-1.965M96.262 28.73c0-2.209-.974-4.19-3.069-6.237-2.353-2.301-4.032-3-7.206-3-7.774 0-12.078 6.124-9.138 13.003 1.677 3.924 4.35 5.471 9.452 5.471 5.043 0 9.96-4.56 9.96-9.237m29.12-14.955c-12.903 4.501-17.016 18.39-8.409 28.391 10.558 12.27 32.744 4.722 32.807-11.16.033-8.51-5.206-15.401-13.399-17.626-4.936-1.34-6.149-1.297-10.999.395m16.006 20.127c1.337-4.855-.43-10.08-4.31-12.735-1.344-.92-3.873-1.658-5.622-1.638-8.762.1-13.627 8.535-9.465 16.406 1.946 3.68 4.899 5.317 9.588 5.317 5.057 0 8.495-2.576 9.809-7.35" clip-rule="evenodd"/></svg>