<svg xmlns="http://www.w3.org/2000/svg" width="1456" height="455" fill="none" viewBox="0 0 1456 455"><g opacity=".15"><mask id="b" width="35" height="31" x="1226" y="106" maskUnits="userSpaceOnUse" style="mask-type:luminance"><path fill="#fff" d="M1260.39 136.646h-34.11V106.43h34.11z"/></mask><g mask="url(#b)"><path fill="#f28a15" d="M1234.87 107.1c.3 0 .63.051.93.177 5.19 2.058 8.65 5.448 12 8.71 3.16 3.088 6.12 6.001 10.26 7.305.75.252 1.35.829 1.6 1.607.25.754.13 1.607-.35 2.259l-5.84 8.16c-.63.877-1.75 1.255-2.76.928-5.36-1.631-8.95-5.145-12.4-8.56-3.09-3.063-6.02-5.923-10.21-7.605-.72-.276-1.25-.88-1.47-1.634a2.44 2.44 0 0 1 .37-2.156l5.84-8.161a2.5 2.5 0 0 1 2.03-1.054zm18.53 19.706c-3.64-1.856-6.4-4.568-9.1-7.203-2.69-2.636-5.24-5.121-8.6-6.853l-2.91 4.042c3.64 2.007 6.37 4.719 9.02 7.329 2.74 2.685 5.32 5.247 8.68 6.728z"/></g></g><path fill="#f28a15" d="M1201.32 4c.71 0 1.39.229 1.93.661l5.46 4.55c1.07.887 1.07 2.321 0 3.209-1.06.887-2.78.887-3.84 0l-5.46-4.552c-1.07-.887-1.07-2.32 0-3.207.54-.454 1.22-.66 1.93-.66zM1158.01 97.498c.1.107.28.11.39.004l2.56-2.57c.11-.103.1-.264 0-.372-2.71-2.967-1.92-8.35-.44-9.994.91-1.015 2.03-1.736 3.25-2.114a11 11 0 0 0 3.1 6.065c2.73 2.73 6.3 2.078 7.74.294 1.39-1.72 2.04-4.694-.68-7.415a11.7 11.7 0 0 0-5.76-3.153c.41-1.272 1.15-2.461 2.15-3.47a8.74 8.74 0 0 1 3.47-2.13 11.56 11.56 0 0 0 3.17 5.939c2.57 2.564 5.82 2.084 7.58.325 1.85-1.84 2.1-5.182-.31-7.592-1.72-1.717-3.88-2.746-6.17-3.094a7.6 7.6 0 0 1 2.09-3.265c1.82-1.683 7.13-2.113 9.98.458.11.104.28.105.39-.005l2.56-2.56a.26.26 0 0 0 0-.374c-4.39-4.145-12.26-3.805-15.76-.575-1.9 1.756-3.13 4-3.57 6.454-2.31.489-4.54 1.65-6.37 3.475-1.78 1.784-2.99 3.975-3.49 6.32-2.47.428-4.72 1.687-6.47 3.637-2.84 3.166-3.8 11.078.59 15.712m23.27-23.233c.98.974.32 1.693.32 1.698-.34.34-.96.408-1.7-.324a7.5 7.5 0 0 1-1.88-3.185 6.8 6.8 0 0 1 3.26 1.811m-10.29 10.08c.91.913.72 1.43.47 1.764-.27.178-.96.148-1.65-.537a6.8 6.8 0 0 1-1.77-3.053c1.09.364 2.1.984 2.95 1.826" opacity=".15"/><g opacity=".15"><mask id="c" width="35" height="31" x="102" y="424" maskUnits="userSpaceOnUse" style="mask-type:luminance"><path fill="#fff" d="M136.391 454.646h-34.115V424.43h34.115z"/></mask><g mask="url(#c)"><path fill="#f28a15" d="M110.873 425.1c.301 0 .628.051.928.177 5.188 2.058 8.646 5.448 12.005 8.71 3.16 3.088 6.116 6.001 10.253 7.305a2.52 2.52 0 0 1 1.252 3.866l-5.84 8.16c-.627.877-1.754 1.255-2.757.928-5.363-1.631-8.949-5.145-12.407-8.56-3.082-3.063-6.015-5.923-10.202-7.605-.727-.276-1.253-.88-1.478-1.634a2.45 2.45 0 0 1 .375-2.156l5.84-8.161a2.5 2.5 0 0 1 2.031-1.054zm18.523 19.706c-3.635-1.856-6.392-4.568-9.099-7.203-2.683-2.636-5.239-5.121-8.598-6.853l-2.908 4.042c3.635 2.007 6.369 4.719 9.025 7.329 2.733 2.685 5.314 5.247 8.672 6.728z"/></g></g><path fill="#f28a15" d="M77.317 322c.71 0 1.394.229 1.937.661l5.46 4.549c1.064.888 1.064 2.322 0 3.21-1.063.887-2.784.887-3.847 0l-5.46-4.552c-1.064-.887-1.064-2.319 0-3.207.546-.454 1.227-.661 1.937-.661zM34.008 415.498c.102.107.28.109.387.004l2.567-2.569a.267.267 0 0 0 .002-.373c-2.71-2.967-1.923-8.349-.448-9.994.911-1.015 2.03-1.736 3.254-2.114a10.96 10.96 0 0 0 3.099 6.065c2.73 2.73 6.304 2.078 7.741.294 1.388-1.72 2.044-4.694-.68-7.415a11.7 11.7 0 0 0-5.757-3.153 8.7 8.7 0 0 1 2.151-3.469 8.7 8.7 0 0 1 3.465-2.132 11.6 11.6 0 0 0 3.17 5.94c2.568 2.564 5.823 2.084 7.585.325 1.841-1.84 2.098-5.182-.317-7.592-1.719-1.717-3.882-2.746-6.164-3.094a7.5 7.5 0 0 1 2.088-3.265c1.818-1.683 7.133-2.113 9.975.458a.285.285 0 0 0 .396-.004l2.56-2.561a.26.26 0 0 0-.004-.374c-4.389-4.145-12.262-3.805-15.757-.575-1.898 1.756-3.133 4.001-3.575 6.454a12.76 12.76 0 0 0-6.367 3.475c-1.784 1.784-2.985 3.975-3.487 6.319-2.468.429-4.726 1.688-6.476 3.638-2.84 3.166-3.796 11.078.592 15.712m23.276-23.233c.975.974.32 1.693.316 1.698-.343.339-.963.408-1.697-.324a7.45 7.45 0 0 1-1.88-3.185 6.8 6.8 0 0 1 3.26 1.811m-10.298 10.08c.914.914.724 1.429.47 1.764-.262.178-.958.148-1.644-.537a6.8 6.8 0 0 1-1.771-3.053 7.56 7.56 0 0 1 2.945 1.826" opacity=".15"/><g opacity=".15"><mask id="d" width="31" height="35" x="148" y="57" maskUnits="userSpaceOnUse" style="mask-type:luminance"><path fill="#fff" d="M148 91.78V57.666h30.217V91.78z"/></mask><g mask="url(#d)"><path fill="#f28a15" d="M177.547 66.263c0 .3-.051.628-.177.928-2.058 5.188-5.448 8.646-8.71 12.005-3.088 3.16-6.001 6.116-7.305 10.253a2.52 2.52 0 0 1-3.866 1.253l-8.16-5.84c-.877-.628-1.256-1.755-.928-2.758 1.631-5.363 5.145-8.95 8.56-12.407 3.063-3.082 5.923-6.014 7.605-10.202.276-.727.88-1.253 1.634-1.478a2.45 2.45 0 0 1 2.156.375l8.161 5.84a2.5 2.5 0 0 1 1.054 2.031zm-19.706 18.523c1.856-3.635 4.568-6.392 7.202-9.099 2.637-2.683 5.122-5.239 6.854-8.597l-4.042-2.909c-2.007 3.635-4.719 6.369-7.329 9.025-2.685 2.733-5.247 5.314-6.728 8.673z"/></g></g><path fill="#f28a15" d="M280.646 32.708c0 .71-.229 1.394-.661 1.937l-4.549 5.46c-.888 1.063-2.322 1.063-3.21 0s-.887-2.784 0-3.848l4.552-5.46c.887-1.063 2.319-1.063 3.207 0 .454.547.661 1.227.661 1.937z" opacity=".15"/><g opacity=".15"><mask id="e" width="31" height="35" x="1400" y="184" maskUnits="userSpaceOnUse" style="mask-type:luminance"><path fill="#fff" d="M1430.65 184v34.114h-30.22V184z"/></mask><g mask="url(#e)"><path fill="#f28a15" d="M1401.1 209.517c0-.301.05-.628.18-.929 2.05-5.188 5.44-8.646 8.71-12.004 3.08-3.16 6-6.116 7.3-10.253.25-.751.83-1.352 1.61-1.604a2.52 2.52 0 0 1 2.26.351l8.16 5.84c.87.628 1.25 1.755.93 2.758-1.64 5.362-5.15 8.949-8.56 12.407-3.07 3.082-5.93 6.014-7.61 10.202-.28.727-.88 1.252-1.63 1.478s-1.53.075-2.16-.376l-8.16-5.84a2.48 2.48 0 0 1-1.05-2.03zm19.71-18.524c-1.86 3.635-4.57 6.393-7.21 9.1-2.63 2.682-5.12 5.239-6.85 8.597l4.04 2.908c2.01-3.635 4.72-6.368 7.33-9.024 2.69-2.733 5.25-5.314 6.73-8.673z"/></g></g><path fill="#f28a15" d="M1298 243.072c0-.71.23-1.393.66-1.937l4.55-5.46c.89-1.063 2.32-1.063 3.21 0 .89 1.064.89 2.784 0 3.848l-4.55 5.46c-.89 1.063-2.32 1.063-3.21 0-.45-.546-.66-1.227-.66-1.937z" opacity=".15"/><g opacity=".15"><mask id="f" width="31" height="35" x="1064" y="16" maskUnits="userSpaceOnUse" style="mask-type:luminance"><path fill="#fff" d="M1094.65 16v34.114h-30.22V16z"/></mask><g mask="url(#f)"><path fill="#f28a15" d="M1065.1 41.517c0-.3.05-.628.18-.928 2.05-5.188 5.44-8.646 8.71-12.005 3.08-3.16 6-6.116 7.3-10.253.25-.75.83-1.351 1.61-1.604.75-.25 1.6-.123 2.26.352l8.16 5.84c.87.628 1.25 1.754.92 2.757-1.63 5.363-5.14 8.95-8.56 12.407-3.06 3.083-5.92 6.015-7.6 10.202-.28.727-.88 1.253-1.63 1.478-.76.226-1.54.075-2.16-.375l-8.16-5.84a2.5 2.5 0 0 1-1.06-2.03zm19.7-18.523c-1.85 3.635-4.56 6.392-7.2 9.1-2.63 2.682-5.12 5.238-6.85 8.597l4.04 2.908c2.01-3.635 4.72-6.369 7.33-9.024 2.68-2.734 5.25-5.315 6.73-8.673z"/></g></g><path fill="#f28a15" d="M962.001 75.072c0-.71.228-1.393.661-1.937l4.549-5.46c.887-1.063 2.322-1.063 3.209 0 .888 1.064.888 2.785 0 3.848l-4.551 5.46c-.888 1.063-2.32 1.063-3.207 0-.455-.546-.661-1.227-.661-1.937z" opacity=".15"/><g opacity=".15"><mask id="g" width="31" height="35" x="453" y="43" maskUnits="userSpaceOnUse" style="mask-type:luminance"><path fill="#fff" d="M483.646 77.78V43.666H453.43V77.78z"/></mask><g mask="url(#g)"><path fill="#f28a15" d="M454.1 52.264c0 .3.05.627.177.928 2.057 5.188 5.448 8.646 8.71 12.004 3.088 3.16 6.001 6.117 7.305 10.253a2.52 2.52 0 0 0 3.865 1.253l8.161-5.84c.877-.628 1.255-1.754.928-2.758-1.631-5.362-5.145-8.949-8.56-12.407-3.064-3.082-5.924-6.014-7.605-10.201-.277-.727-.88-1.253-1.634-1.479a2.45 2.45 0 0 0-2.157.376l-8.16 5.84a2.5 2.5 0 0 0-1.055 2.03zm19.706 18.523c-1.857-3.635-4.569-6.393-7.203-9.1-2.637-2.682-5.121-5.238-6.854-8.597l4.043-2.908c2.006 3.635 4.718 6.368 7.328 9.024 2.686 2.734 5.248 5.314 6.728 8.673z"/></g></g><path fill="#f28a15" d="M351.001 18.708c0 .71.228 1.394.661 1.937l4.549 5.46c.887 1.063 2.322 1.063 3.209 0 .888-1.064.888-2.784 0-3.848l-4.551-5.46c-.888-1.063-2.32-1.063-3.207 0-.455.547-.661 1.227-.661 1.937z" opacity=".15"/><g opacity=".15"><mask id="h" width="35" height="31" x="33" y="27" maskUnits="userSpaceOnUse" style="mask-type:luminance"><path fill="#fff" d="M33 27h34.114v30.217H33z"/></mask><g mask="url(#h)"><path fill="#f28a15" d="M58.519 56.546c-.3 0-.628-.051-.929-.177-5.188-2.058-8.646-5.448-12.004-8.71-3.16-3.088-6.117-6.001-10.253-7.305a2.519 2.519 0 0 1-1.253-3.866l5.84-8.16c.628-.877 1.755-1.255 2.758-.928 5.362 1.63 8.949 5.145 12.407 8.56 3.082 3.063 6.014 5.923 10.202 7.605.727.276 1.252.88 1.478 1.634a2.45 2.45 0 0 1-.376 2.157l-5.84 8.16a2.5 2.5 0 0 1-2.03 1.054zM39.995 36.84c3.635 1.856 6.393 4.568 9.1 7.202 2.682 2.637 5.239 5.121 8.597 6.855l2.908-4.043c-3.635-2.007-6.368-4.719-9.024-7.329-2.733-2.685-5.314-5.247-8.673-6.728z"/></g></g><path fill="#f28a15" d="M92.072 159.646c-.71 0-1.393-.228-1.937-.661l-5.46-4.549c-1.063-.887-1.063-2.322 0-3.209 1.064-.888 2.785-.888 3.848 0l5.46 4.551c1.063.888 1.063 2.32 0 3.207-.546.455-1.227.661-1.937.661z" opacity=".15"/><g opacity=".15"><mask id="i" width="35" height="31" x="1369" y="311" maskUnits="userSpaceOnUse" style="mask-type:luminance"><path fill="#fff" d="M1369 311h34.11v30.217H1369z"/></mask><g mask="url(#i)"><path fill="#f28a15" d="M1394.52 340.546c-.3 0-.63-.05-.93-.177-5.19-2.057-8.65-5.448-12-8.71-3.16-3.088-6.12-6.001-10.26-7.305a2.5 2.5 0 0 1-1.6-1.606 2.53 2.53 0 0 1 .35-2.259l5.84-8.161c.63-.877 1.75-1.255 2.76-.928 5.36 1.631 8.95 5.145 12.4 8.56 3.09 3.064 6.02 5.924 10.21 7.605.72.277 1.25.88 1.47 1.634.23.751.08 1.532-.37 2.157l-5.84 8.16a2.5 2.5 0 0 1-2.03 1.055zM1376 320.84c3.63 1.857 6.39 4.569 9.09 7.203 2.69 2.637 5.24 5.121 8.6 6.854l2.91-4.043c-3.63-2.006-6.37-4.718-9.02-7.328-2.74-2.686-5.32-5.248-8.68-6.728z"/></g></g><path fill="#f28a15" d="M1428.07 443.646c-.71 0-1.39-.228-1.93-.661l-5.46-4.549c-1.07-.887-1.07-2.322 0-3.209 1.06-.888 2.78-.888 3.84 0l5.46 4.551c1.07.888 1.07 2.32 0 3.207-.54.455-1.22.661-1.93.661z" opacity=".15"/></svg>