<svg xmlns="http://www.w3.org/2000/svg" width="112" height="105" fill="none" viewBox="0 0 112 105"><path fill="#ffca7f" d="m37.3 31.093 3.59 6.218 6.218-3.59c3.42-1.974 7.832-.792 9.807 2.628l1.795 3.109c4.577 7.927 2.341 17.84-4.78 23.236.733 5.794-1.436 11.73-5.911 15.682l5.564 9.637 12.435-7.179 3.59 6.217L38.52 105l-3.59-6.217 12.435-7.18-5.564-9.637c-5.66 1.9-11.884.81-16.535-2.723-8.235 3.47-17.938.45-22.515-7.478L.956 68.656c-1.974-3.42-.79-7.833 2.629-9.807l6.217-3.59-3.59-6.217zm-10.31 23.96-6.199 4.316 7.426 1.43 2.193 7.231 3.65-6.616 7.554.148-5.167-5.515 2.474-7.145-6.837 3.21-6.016-4.54zM7.174 65.066l1.795 3.11c2.334 4.04 6.919 5.952 11.279 5.176l-6.856-11.875zM44.48 43.528l6.856 11.875c2.852-3.387 3.49-8.315 1.157-12.356l-1.795-3.109z"/><path fill="#ffdaa6" d="m88.115 0 1.637 9.681 9.68-1.636c5.325-.9 10.418 2.719 11.318 8.043l.819 4.84c2.087 12.344-5.505 23.983-17.207 27.505-1.822 7.776-7.432 14.35-15.051 17.282l2.537 15.006 19.362-3.274 1.636 9.681-48.404 8.184-1.637-9.68 19.362-3.275-2.538-15.005c-8.16-.263-15.619-4.628-19.896-11.373-12.21.52-23.205-7.976-25.292-20.32l-.819-4.84c-.9-5.324 2.72-10.416 8.045-11.317l9.68-1.636-1.637-9.682zM63.477 25.796l-10.002 2.577 8.835 5.373-.637 10.313 7.832-6.739 9.613 3.79-3.992-9.531 6.577-7.98-10.293.855-5.549-8.686zm-30.173 3.387.818 4.84c1.064 6.292 6.03 10.93 11.988 12.014l-3.126-18.491zm58.085-9.821 3.126 18.49c5.271-2.982 8.436-8.994 7.372-15.287l-.818-4.84z"/></svg>