<svg xmlns="http://www.w3.org/2000/svg" width="66" height="86" fill="none" viewBox="0 0 66 86"><mask id="a" width="113" height="113" x="-23" y="-18" maskUnits="userSpaceOnUse" style="mask-type:alpha"><path fill="#d9d9d9" d="m-22.998 3.588 91.393-20.695L89.09 74.287-2.303 94.98z"/></mask><g mask="url(#a)"><path fill="#f28a15" fill-opacity=".25" d="m25.658 47.416.874-11.607-10.353-5.062 10.853-2.458 1.013-11.438 5.841 9.886L44.74 24.28l-7.258 9.05 5.79 10.098-10.29-4.776zM19.683 86 13.02 56.583q-4.523-3.18-7.686-7.868T.857 38.22q-2.889-12.757 3.96-23.616T24.423.857t23.616 3.96q10.858 6.85 13.747 19.606 1.315 5.808.48 11.401-.836 5.595-3.548 10.411l6.661 29.418-24.573-2.443zm16.812-31.83q9.52-2.156 14.675-10.329t3-17.693-10.33-14.676-17.692-2.999-14.676 10.329-3 17.693 10.33 14.676q8.172 5.154 17.693 2.999M24.733 72.947l14.349-7.353 16.116.454-2.673-11.805a33 33 0 0 1-6.509 4.627q-3.608 1.968-7.797 2.916-4.188.948-8.292.727a33 33 0 0 1-7.867-1.371z"/></g></svg>