<svg xmlns="http://www.w3.org/2000/svg" width="80" height="88" fill="none" viewBox="0 0 80 88"><path fill="#ffa62a" fill-opacity=".34" fill-rule="evenodd" d="m59.928 8.804 8.714-1.754c4.793-.965 9.23 2.208 9.861 7.05l.574 4.402c1.462 11.224-5.711 22.063-16.295 25.594-1.885 7.155-7.12 13.313-14.033 16.194l1.778 13.645 17.428-3.507 1.147 8.803L25.53 88l-1.147-8.804 17.428-3.507-1.777-13.645c-7.291-.024-13.821-3.814-17.426-9.864-10.94.8-20.499-6.671-21.96-17.896l-.574-4.402c-.63-4.841 2.775-9.592 7.568-10.557l8.714-1.753-1.147-8.804L58.782 0zM35.895 24.227l-9.032 2.622 7.727 4.674-.908 9.442 7.228-6.367 8.475 3.208-3.26-8.604 6.147-7.467-9.237 1.056L38.357 15zM8.79 28.13l.573 4.402c.745 5.722 5.036 9.828 10.33 10.66l-2.189-16.816zm52.285-10.522 2.19 16.815c4.813-2.866 7.843-8.445 7.098-14.167l-.574-4.402z" clip-rule="evenodd"/></svg>