<svg xmlns="http://www.w3.org/2000/svg" width="29" height="26" fill="none" viewBox="0 0 29 26"><path fill="#ffa62a" d="M14.057 19.213c1.903 0 3.444-1.519 3.444-3.394s-1.541-3.394-3.444-3.394-3.445 1.519-3.445 3.394 1.541 3.394 3.445 3.394m0 1.697c-2.3 0-6.89 1.137-6.89 3.393V26h13.78v-1.697c0-2.256-4.591-3.393-6.89-3.393M17.008 0v1.163h1.18c.65 0 1.182.524 1.182 1.163v.582c0 1.483-1.134 2.692-2.592 2.872a2.95 2.95 0 0 1-2.13 1.722v1.803h2.36v1.162h-5.902V9.305h2.361V7.502a2.95 2.95 0 0 1-2.13-1.722C9.878 5.6 8.744 4.39 8.744 2.908v-.582c0-.64.53-1.163 1.18-1.163h1.18V0zM13.57 2.526l-1.237.104.94.801-.282 1.192 1.063-.632 1.063.632-.282-1.192.94-.801-1.237-.104-.484-1.124zm-3.645-.2v.582c0 .755.496 1.395 1.18 1.64V2.325zm7.083 0v2.221c.685-.244 1.18-.883 1.18-1.64v-.58zM27.245 3.268l-6.61 7.052 7.477-5.038zM26.674 10.51 20.4 13.006l6.212-.98zM.867 3.268l6.61 7.052L0 5.282zM1.439 10.51l6.274 2.497-6.212-.98z"/></svg>