<svg xmlns="http://www.w3.org/2000/svg" width="29" height="27" fill="none" viewBox="0 0 29 27"><path fill="#f28a15" d="M14.182 21.179c1.773 0 3.339.429 4.611.99 1.175.527 1.914 1.714 1.914 3v1.782H7.657v-1.77c0-1.298.74-2.485 1.914-3.002a11.25 11.25 0 0 1 4.611-1m-8.7.275c1.196 0 2.175-.99 2.175-2.2 0-1.209-.979-2.198-2.175-2.198s-2.175.99-2.175 2.199c0 1.21.979 2.199 2.175 2.199m1.229 1.209a7.5 7.5 0 0 0-1.229-.11c-1.077 0-2.099.231-3.023.638a2.21 2.21 0 0 0-1.327 2.034v1.726h4.894v-1.77c0-.913.25-1.77.685-2.518m16.171-1.21c1.196 0 2.175-.989 2.175-2.198s-.979-2.2-2.175-2.2-2.175.99-2.175 2.2.979 2.199 2.175 2.199m4.35 3.772c0-.89-.522-1.682-1.327-2.034a7.5 7.5 0 0 0-3.023-.638 7.5 7.5 0 0 0-1.229.11c.435.748.685 1.605.685 2.518v1.77h4.894zm-13.05-11.467c1.805 0 3.263 1.473 3.263 3.298s-1.458 3.298-3.263 3.298-3.262-1.473-3.262-3.298 1.457-3.298 3.262-3.298M17.546 0v1.23h1.218c.67.001 1.217.556 1.217 1.233v.615c0 1.57-1.17 2.85-2.673 3.04a3.06 3.06 0 0 1-2.199 1.823V9.85h2.437v1.231h-6.09V9.85h2.436V7.94a3.06 3.06 0 0 1-2.198-1.822 3.06 3.06 0 0 1-2.673-3.041v-.615c0-.677.548-1.232 1.218-1.232h1.217V0zm-3.547 2.674-1.277.11.97.848-.292 1.262 1.098-.67 1.096.67-.291-1.262.97-.849-1.277-.109-.498-1.19zm-3.76-.211v.615c0 .8.511 1.477 1.217 1.735v-2.35zm7.307 0v2.35a1.85 1.85 0 0 0 1.218-1.735v-.615zM28.106 3.46l-6.818 7.464L29 5.59zM27.517 11.124l-6.472 2.645 6.408-1.038zM.894 3.46l6.818 7.464L0 5.59zM1.484 11.124l6.472 2.645-6.408-1.038z"/></svg>